<?xml version="1.0" encoding="utf-8"?>
<!-- Generator: Adobe Illustrator 15.1.0, SVG Export Plug-In . SVG Version: 6.00 Build 0)  -->
<!DOCTYPE svg PUBLIC "-//W3C//DTD SVG 1.1//EN" "http://www.w3.org/Graphics/SVG/1.1/DTD/svg11.dtd">
<svg version="1.1" id="Layer_2" xmlns="http://www.w3.org/2000/svg" xmlns:xlink="http://www.w3.org/1999/xlink" x="0px" y="0px"
	 width="300px" height="74px" viewBox="0 0 300 74" enable-background="new 0 0 300 74" xml:space="preserve">
<path fill="#FFFFFF" d="M4.338,16.457l0.996,2.418c2.229-1.993,4.717-2.987,7.468-2.987c1.47,0,2.821,0.319,4.055,0.959
	c1.231,0.641,2.251,1.578,3.058,2.811c1.091-1.232,2.358-2.17,3.805-2.811c1.446-0.64,2.928-0.959,4.446-0.959
	c1.186,0,2.323,0.214,3.415,0.639c1.089,0.428,2.038,1.08,2.844,1.957c0.807,0.877,1.447,1.98,1.921,3.308
	c0.474,1.329,0.711,2.87,0.711,4.623v33.501h-6.33V27.767c0-1.801-0.333-3.189-0.996-4.162c-0.665-0.971-1.778-1.459-3.343-1.459
	c-1.707,0-3.319,0.76-4.837,2.276c0.047,0.333,0.082,0.653,0.107,0.961c0.023,0.31,0.035,0.653,0.035,1.031v33.501h-6.331V27.767
	c0-1.801-0.332-3.189-0.995-4.162c-0.665-0.971-1.778-1.459-3.344-1.459c-1.707,0-3.272,0.712-4.694,2.135v35.635H0V16.457H4.338z"
	/>
<path fill="#FFFFFF" d="M98.973,49.604c0,1.518,0.427,2.666,1.28,3.447c0.854,0.785,1.944,1.176,3.271,1.176
	c1.375,0,2.49-0.391,3.343-1.176c0.854-0.781,1.28-1.931,1.28-3.447v-2.633l5.762-1.492v4.48c0,1.659-0.273,3.13-0.818,4.409
	c-0.545,1.28-1.304,2.383-2.276,3.307c-0.972,0.927-2.099,1.626-3.378,2.101c-1.28,0.474-2.656,0.713-4.126,0.713
	s-2.833-0.239-4.09-0.713c-1.256-0.475-2.359-1.174-3.308-2.101c-0.949-0.924-1.695-2.024-2.24-3.307
	c-0.545-1.279-0.818-2.75-0.818-4.409V26.415c0-1.611,0.272-3.068,0.818-4.374c0.545-1.304,1.292-2.418,2.24-3.344
	c0.949-0.924,2.051-1.624,3.308-2.097c1.256-0.474,2.62-0.711,4.09-0.711s2.846,0.237,4.126,0.711
	c1.28,0.473,2.406,1.173,3.378,2.097c0.972,0.926,1.73,2.04,2.276,3.344c0.545,1.306,0.818,2.763,0.818,4.374v1.85h-5.762V26.77
	c0-1.515-0.426-2.666-1.28-3.449c-0.854-0.782-1.968-1.174-3.343-1.174c-1.328,0-2.418,0.392-3.271,1.174
	c-0.854,0.783-1.28,1.935-1.28,3.449V49.604z"/>
<path fill="#FFFFFF" d="M141.151,16.457l-9.958,17.782l10.811,25.677h-6.543l-9.602-23.402v23.402h-6.331V3.512l6.331-1.565v30.656
	l8.82-16.146H141.151z"/>
<path fill="#FFFFFF" d="M149.26,2.586c1.28,0,2.229,0.369,2.846,1.104c0.615,0.736,0.926,1.647,0.926,2.738
	c0,1.091-0.311,2.027-0.926,2.809c-0.617,0.783-1.564,1.175-2.846,1.175c-1.232,0-2.146-0.392-2.738-1.175
	c-0.592-0.781-0.889-1.717-0.889-2.809c0-1.092,0.296-2.002,0.889-2.738C147.113,2.955,148.025,2.586,149.26,2.586z M152.532,16.457
	v43.459h-6.331V16.457H152.532z"/>
<path fill="#FFFFFF" d="M163.413,16.457l0.996,2.489c1.092-0.996,2.323-1.753,3.698-2.276c1.375-0.521,2.75-0.782,4.125-0.782
	c1.234,0,2.408,0.214,3.522,0.639c1.112,0.428,2.086,1.08,2.916,1.957c0.827,0.877,1.481,1.98,1.956,3.308
	c0.473,1.329,0.71,2.87,0.71,4.623v33.501h-6.33V27.767c0-1.801-0.354-3.189-1.065-4.162c-0.711-0.971-1.873-1.459-3.486-1.459
	c-1.754,0-3.438,0.76-5.048,2.276v35.494h-6.331V16.457H163.413z"/>
<path fill="#FFFFFF" d="M187.454,26.415c0-1.611,0.286-3.068,0.854-4.374c0.567-1.304,1.34-2.418,2.313-3.344
	c0.971-0.924,2.106-1.624,3.412-2.097c1.305-0.474,2.712-0.711,4.231-0.711c2.18,0,4.102,0.497,5.762,1.493l7.894-0.426
	l-3.556,5.477c0.477,1.325,0.712,2.654,0.712,3.982v11.522c0,1.66-0.282,3.129-0.853,4.41c-0.57,1.28-1.341,2.383-2.312,3.309
	c-0.974,0.925-2.125,1.624-3.45,2.099c-1.329,0.476-2.729,0.712-4.197,0.712c-0.9,0-1.73-0.072-2.49-0.215
	c-1.137,0.949-1.705,2.087-1.705,3.415c0,0.899,0.283,1.624,0.852,2.17c0.57,0.544,1.496,0.817,2.775,0.817h12.445l-2.488,5.404
	h-12.162c-1.564,0-2.68,0.319-3.342,0.961c-0.666,0.642-0.998,1.435-0.998,2.381c0,0.949,0.297,1.746,0.89,2.385
	c0.594,0.641,1.479,0.961,2.668,0.961h9.957l-2.489,5.334H193.5c-1.471,0-2.748-0.227-3.839-0.676
	c-1.093-0.45-2.004-1.066-2.737-1.85c-0.736-0.781-1.294-1.684-1.673-2.703c-0.381-1.021-0.569-2.074-0.569-3.164
	c0-1.707,0.428-3.263,1.281-4.66s2.182-2.453,3.98-3.166c-0.664-0.945-0.992-2.133-0.992-3.557c0-1.23,0.281-2.285,0.851-3.164
	c0.571-0.877,1.326-1.646,2.275-2.312c-1.421-0.852-2.548-2.037-3.376-3.555c-0.83-1.52-1.247-3.297-1.247-5.336V26.415
	L187.454,26.415z M193.43,37.866c0,1.565,0.45,2.752,1.354,3.558c0.898,0.807,2.062,1.208,3.484,1.208
	c1.377,0,2.525-0.401,3.45-1.208c0.923-0.806,1.388-1.992,1.388-3.558v-11.38c0-1.612-0.465-2.811-1.388-3.592
	c-0.925-0.784-2.073-1.173-3.45-1.173c-1.422,0-2.586,0.39-3.484,1.173c-0.902,0.781-1.354,1.98-1.354,3.592V37.866z"/>
<path fill="#FFFFFF" d="M221.953,1.947v16.432c0.995-0.807,2.097-1.423,3.309-1.851c1.207-0.425,2.43-0.639,3.661-0.639
	c1.188,0,2.324,0.214,3.416,0.639c1.091,0.428,2.037,1.08,2.845,1.957c0.805,0.877,1.459,1.98,1.955,3.308
	c0.498,1.329,0.748,2.87,0.748,4.623V49.96c0,1.802-0.25,3.354-0.748,4.658c-0.496,1.306-1.15,2.396-1.955,3.271
	c-0.808,0.879-1.754,1.529-2.845,1.957c-1.092,0.428-2.229,0.643-3.416,0.643c-1.47,0-2.879-0.287-4.231-0.854
	c-1.353-0.569-2.571-1.376-3.664-2.42l-1.065,2.703h-4.339V3.512L221.953,1.947z M227.145,22.146c-1.896,0-3.625,0.832-5.19,2.491
	v27.099c1.565,1.66,3.295,2.49,5.19,2.49c1.521,0,2.633-0.486,3.344-1.459c0.713-0.972,1.068-2.358,1.068-4.16V27.768
	c0-1.801-0.355-3.189-1.068-4.162C229.777,22.635,228.664,22.146,227.145,22.146z"/>
<path fill="#FFFFFF" d="M264.984,49.959c0,1.659-0.283,3.13-0.854,4.409c-0.568,1.28-1.338,2.383-2.311,3.307
	c-0.973,0.927-2.122,1.626-3.449,2.101c-1.329,0.474-2.729,0.713-4.197,0.713c-1.518,0-2.928-0.239-4.232-0.713
	c-1.303-0.475-2.442-1.174-3.412-2.101c-0.975-0.924-1.743-2.024-2.312-3.307c-0.57-1.279-0.854-2.75-0.854-4.409V26.415
	c0-1.611,0.283-3.068,0.854-4.374c0.569-1.304,1.34-2.418,2.312-3.344c0.97-0.924,2.109-1.624,3.412-2.097
	c1.306-0.474,2.716-0.711,4.232-0.711c1.471,0,2.868,0.237,4.197,0.711c1.326,0.473,2.477,1.173,3.449,2.097
	c0.973,0.926,1.742,2.04,2.311,3.344c0.57,1.306,0.854,2.763,0.854,4.374V49.959z M249.479,49.604c0,1.518,0.438,2.666,1.315,3.447
	c0.877,0.785,2.003,1.176,3.379,1.176c1.374,0,2.489-0.391,3.343-1.176c0.854-0.781,1.28-1.931,1.28-3.447V26.769
	c0-1.515-0.426-2.666-1.28-3.449c-0.854-0.782-1.969-1.174-3.343-1.174c-1.376,0-2.502,0.392-3.379,1.174
	c-0.878,0.783-1.315,1.935-1.315,3.449V49.604z"/>
<path fill="#FFFFFF" d="M294.146,16.457l-9.746,20.84L295,59.916h-7.042l-7.325-15.861l-7.111,15.861h-6.332l10.17-23.045
	l-9.387-20.414h6.758l6.33,13.727l6.543-13.727H294.146z"/>
<path fill="#DEDEDE" d="M58.801,57.513l2.185,1.262l3.784,2.185l3.785-2.185l2.185-1.262l13.492-7.79V34.476V31.89v-4.639
	l-3.583-2.068l-2.281-1.317l-13.598-7.851l-13.452,7.767l-2.311,1.334l-3.697,2.135v4.509v2.629v15.333L58.801,57.513z
	 M64.769,57.307l-2.211-1.276c0.625-0.447,1.385-0.718,2.211-0.718c0.827,0,1.587,0.271,2.213,0.718L64.769,57.307z M60.95,38.486
	c0-2.106,1.713-3.821,3.819-3.821c2.107,0,3.821,1.714,3.821,3.821c0,2.107-1.714,3.82-3.821,3.82
	C62.663,42.307,60.95,40.594,60.95,38.486z M78.676,27.695l2.393,1.381v3.062c-1.458-0.54-2.504-1.931-2.504-3.572
	C78.565,28.264,78.609,27.976,78.676,27.695z M81.069,34.613v13.285L69.16,54.773c-0.857-0.863-1.965-1.474-3.205-1.716v-8.495
	c2.849-0.557,5.006-3.067,5.006-6.076c0-0.525-0.073-1.032-0.197-1.52l7.179-4.096C78.777,33.729,79.857,34.349,81.069,34.613z
	 M64.769,19.666l11.796,6.81c-0.235,0.654-0.37,1.355-0.37,2.089c0,0.818,0.164,1.599,0.455,2.314l-6.904,3.938
	c-1.128-1.525-2.936-2.522-4.977-2.522c-2.025,0-3.82,0.982-4.951,2.49l-6.624-4.082c0.246-0.668,0.388-1.386,0.388-2.138
	c0-0.776-0.149-1.517-0.412-2.202L64.769,19.666z M48.471,29.076l2.595-1.498c0.086,0.317,0.146,0.644,0.146,0.987
	c0,1.729-1.162,3.177-2.74,3.646V29.076z M48.471,34.656c1.373-0.243,2.588-0.938,3.49-1.928l6.823,4.205
	c-0.129,0.498-0.205,1.016-0.205,1.553c0,3.009,2.157,5.52,5.006,6.076v8.495c-1.239,0.242-2.349,0.853-3.206,1.716l-11.908-6.876
	V34.656z"/>
</svg>
