<?xml version="1.0" encoding="UTF-8" standalone="no"?>
<svg
   xmlns:dc="http://purl.org/dc/elements/1.1/"
   xmlns:cc="http://creativecommons.org/ns#"
   xmlns:rdf="http://www.w3.org/1999/02/22-rdf-syntax-ns#"
   xmlns:svg="http://www.w3.org/2000/svg"
   xmlns="http://www.w3.org/2000/svg"
   xmlns:sodipodi="http://sodipodi.sourceforge.net/DTD/sodipodi-0.dtd"
   xmlns:inkscape="http://www.inkscape.org/namespaces/inkscape"
   width="14mm"
   height="14mm"
   viewBox="0 0 14 14"
   version="1.1"
   id="svg877"
   inkscape:version="1.0.2 (e86c8708, 2021-01-15)"
   sodipodi:docname="mox-icon.svg">
  <defs
     id="defs871" />
  <sodipodi:namedview
     id="base"
     pagecolor="#ffffff"
     bordercolor="#666666"
     borderopacity="1.0"
     inkscape:pageopacity="0.0"
     inkscape:pageshadow="2"
     inkscape:zoom="0.98994949"
     inkscape:cx="286.67209"
     inkscape:cy="325.03747"
     inkscape:document-units="mm"
     inkscape:current-layer="layer1"
     inkscape:document-rotation="0"
     showgrid="false"
     inkscape:window-width="1252"
     inkscape:window-height="943"
     inkscape:window-x="0"
     inkscape:window-y="25"
     inkscape:window-maximized="0" />
  <metadata
     id="metadata874">
    <rdf:RDF>
      <cc:Work
         rdf:about="">
        <dc:format>image/svg+xml</dc:format>
        <dc:type
           rdf:resource="http://purl.org/dc/dcmitype/StillImage" />
        <dc:title></dc:title>
      </cc:Work>
    </rdf:RDF>
  </metadata>
  <g
     inkscape:label="Layer 1"
     inkscape:groupmode="layer"
     id="layer1">
    <path
       fill="#dedede"
       d="m 5.2240032,11.912988 0.5781151,0.333904 1.001183,0.578115 1.001448,-0.578115 0.5781149,-0.333904 3.5697568,-2.0611037 V 5.8177844 5.1335714 3.9061694 L 11.004619,3.3590114 10.401104,3.0105554 6.8033013,0.93331173 3.2441265,2.9883304 2.6326745,3.3412844 1.6545106,3.9061694 v 1.193007 0.695589 4.0568539 z m 1.5790341,-0.0545 -0.584994,-0.337608 c 0.165365,-0.118269 0.366448,-0.189971 0.584994,-0.189971 0.21881,0 0.419893,0.0717 0.585523,0.189971 z M 5.7925933,6.8787668 c 0,-0.5572117 0.453231,-1.0109724 1.010444,-1.0109724 0.557477,0 1.010973,0.4534957 1.010973,1.0109724 0,0.5574767 -0.453496,1.0107074 -1.010973,1.0107074 -0.557213,2.65e-4 -1.010444,-0.4529657 -1.010444,-1.0107074 z m 4.6900027,-2.8551184 0.633148,0.36539 v 0.810154 c -0.385763,-0.142879 -0.662517,-0.510914 -0.662517,-0.945096 0,-0.0799 0.01164,-0.156104 0.02937,-0.230452 z m 0.633148,1.830388 V 9.3690236 L 7.9648222,11.188034 C 7.7380743,10.959698 7.4449163,10.798038 7.1168333,10.734009 V 8.4863739 c 0.753797,-0.1473727 1.3245036,-0.8114764 1.3245036,-1.6076071 0,-0.1389057 -0.01931,-0.2730497 -0.05212,-0.4021667 L 10.288659,5.3928674 c 0.220663,0.227277 0.506413,0.391319 0.827088,0.461169 z m -4.3127067,-3.954727 3.121024,1.801812 c -0.06218,0.173038 -0.0979,0.358511 -0.0979,0.552715 0,0.216429 0.04339,0.423069 0.120385,0.612246 l -1.8266821,1.041929 c -0.2984499,-0.40349 -0.7768169,-0.667279 -1.3168309,-0.667279 -0.535782,0 -1.010709,0.25982 -1.309952,0.658812 L 3.7404815,4.8195154 c 0.06509,-0.176742 0.1026579,-0.366713 0.1026579,-0.565679 0,-0.205317 -0.03942,-0.401373 -0.1090079,-0.582613 z m -4.3121788,2.489729 0.686593,-0.396346 c 0.02275,0.08387 0.03863,0.170392 0.03863,0.261144 0,0.457464 -0.307445,0.840581 -0.724958,0.964671 v -0.829469 z m 0,1.476375 c 0.363273,-0.06429 0.684741,-0.248179 0.923395,-0.510117 l 1.8052517,1.1125727 c -0.03413,0.131763 -0.05424,0.268817 -0.05424,0.4108977 0,0.7961307 0.5707061,1.4604994 1.3245041,1.6076071 v 2.2476351 c -0.327819,0.06403 -0.621506,0.225689 -0.848254,0.454025 L 2.4908585,9.3687556 Z"
       id="path851"
       style="stroke-width:0.264583" />
  </g>
</svg>
